<svg width="120" height="27" viewBox="0 0 120 27" fill="none" xmlns="http://www.w3.org/2000/svg">
<path d="M32.5566 22.3691L33.8967 22.0341V7.74033L32.5566 7.40532V7.07031H38.5868C40.85 7.07031 42.5102 7.4351 43.5673 8.16468C44.6393 8.87937 45.1753 9.81739 45.1753 10.9788C45.1753 11.7828 44.9446 12.4305 44.483 12.9218C44.0214 13.4132 43.4333 13.778 42.7186 14.0162C41.9592 14.2842 41.1403 14.4256 40.2619 14.4405V14.5522C41.3488 14.5969 42.2943 14.7607 43.0983 15.0435C43.9172 15.3116 44.5947 15.7285 45.1307 16.2943C45.6816 16.86 45.957 17.5822 45.957 18.4606C45.957 19.7858 45.4136 20.828 44.3267 21.5874C43.2397 22.3319 41.4753 22.7041 39.0335 22.7041H32.5566V22.3691ZM38.5868 14.2172C39.0782 14.2172 39.5323 14.0832 39.9492 13.8152C40.381 13.5323 40.7234 13.1452 40.9766 12.6538C41.2446 12.1476 41.3786 11.5892 41.3786 10.9788C41.3786 10.3236 41.2446 9.74295 40.9766 9.23671C40.7234 8.73047 40.381 8.33591 39.9492 8.05301C39.5323 7.77011 39.0782 7.62866 38.5868 7.62866H37.5818V14.2172H38.5868ZM39.0335 22.1458C39.9566 22.1458 40.7085 21.8182 41.2892 21.1631C41.8699 20.5079 42.1603 19.6071 42.1603 18.4606C42.1603 17.3142 41.8699 16.4134 41.2892 15.7582C40.7085 15.1031 39.9566 14.7755 39.0335 14.7755H37.5818V22.1458H39.0335Z" fill="#181F1A"/>
<path d="M46.3967 22.3691L47.7368 22.0341V7.74033L46.3967 7.40532V7.07031H49.3001C50.6402 7.07031 51.3102 7.74033 51.3102 9.08037V22.0341L52.6502 22.3691V22.7041H46.3967V22.3691Z" fill="#181F1A"/>
<path d="M58.7886 23.0391C56.9423 23.0391 55.4906 22.518 54.4335 21.4757C53.3912 20.4186 52.8701 18.9669 52.8701 17.1206C52.8701 15.2743 53.3912 13.8301 54.4335 12.7878C55.4906 11.7307 56.9423 11.2021 58.7886 11.2021C60.6349 11.2021 62.0791 11.7307 63.1214 12.7878C64.1785 13.8301 64.7071 15.2743 64.7071 17.1206C64.7071 18.9669 64.1785 20.4186 63.1214 21.4757C62.0791 22.518 60.6349 23.0391 58.7886 23.0391ZM58.7886 22.5924C59.3842 22.5924 59.883 22.1755 60.285 21.3417C60.7019 20.5079 60.9103 19.1009 60.9103 17.1206C60.9103 15.1403 60.7019 13.7333 60.285 12.8995C59.883 12.0657 59.3842 11.6488 58.7886 11.6488C58.193 11.6488 57.6868 12.0657 57.2699 12.8995C56.8679 13.7333 56.6669 15.1403 56.6669 17.1206C56.6669 19.1009 56.8679 20.5079 57.2699 21.3417C57.6868 22.1755 58.193 22.5924 58.7886 22.5924Z" fill="#181F1A"/>
<path d="M70.6335 23.0391C69.7103 23.0391 68.884 22.8381 68.1544 22.4361C67.7971 22.2425 67.5067 22.0341 67.2834 21.8107C67.0451 22.1383 66.7846 22.3914 66.5017 22.5701C66.3677 22.6594 66.2188 22.7413 66.055 22.8158H65.4967V19.019H66.39C66.5836 19.6443 66.8665 20.225 67.2387 20.761C68.0278 21.9075 69.0105 22.4808 70.1868 22.4808C70.8121 22.4808 71.2812 22.3319 71.5938 22.0341C71.9214 21.7214 72.0852 21.2747 72.0852 20.694C72.0852 20.2027 71.8618 19.7932 71.4152 19.4657C70.9834 19.1232 70.2985 18.7063 69.3604 18.215C68.5564 17.813 67.9013 17.4556 67.395 17.1429C66.9037 16.8154 66.4794 16.4134 66.122 15.9369C65.7796 15.4456 65.6083 14.8723 65.6083 14.2172C65.6083 13.3238 65.988 12.6017 66.7474 12.0508C67.5216 11.485 68.7053 11.2021 70.2985 11.2021C71.0876 11.2021 71.8172 11.4106 72.4872 11.8275C72.8148 12.021 73.0977 12.222 73.3359 12.4305C73.5294 12.1625 73.79 11.9093 74.1176 11.6711C74.3707 11.5222 74.5196 11.4403 74.5643 11.4254H75.1226V15.2222H74.2292C74.0059 14.582 73.7305 14.0087 73.4029 13.5025C72.6584 12.3411 71.7725 11.7605 70.7451 11.7605C70.3431 11.7605 70.0007 11.9093 69.7178 12.2071C69.4349 12.5049 69.2934 12.8772 69.2934 13.3238C69.2934 13.8896 69.5317 14.3661 70.0081 14.7532C70.4846 15.1254 71.2067 15.5572 72.1745 16.0486C72.9637 16.4506 73.589 16.8079 74.0506 17.1206C74.527 17.4184 74.929 17.7906 75.2566 18.2373C75.5991 18.684 75.7703 19.2051 75.7703 19.8007C75.7703 21.9596 74.058 23.0391 70.6335 23.0391Z" fill="#181F1A"/>
<path d="M81.578 23.0391C80.6549 23.0391 79.8285 22.8381 79.0989 22.4361C78.7416 22.2425 78.4512 22.0341 78.2279 21.8107C77.9897 22.1383 77.7291 22.3914 77.4462 22.5701C77.3122 22.6594 77.1633 22.7413 76.9995 22.8158H76.4412V19.019H77.3345C77.5281 19.6443 77.811 20.225 78.1832 20.761C78.9724 21.9075 79.9551 22.4808 81.1313 22.4808C81.7567 22.4808 82.2257 22.3319 82.5384 22.0341C82.8659 21.7214 83.0297 21.2747 83.0297 20.694C83.0297 20.2027 82.8064 19.7932 82.3597 19.4657C81.9279 19.1232 81.243 18.7063 80.305 18.215C79.5009 17.813 78.8458 17.4556 78.3396 17.1429C77.8482 16.8154 77.4239 16.4134 77.0665 15.9369C76.7241 15.4456 76.5528 14.8723 76.5528 14.2172C76.5528 13.3238 76.9325 12.6017 77.6919 12.0508C78.4661 11.485 79.6498 11.2021 81.243 11.2021C82.0321 11.2021 82.7617 11.4106 83.4317 11.8275C83.7593 12.021 84.0422 12.222 84.2804 12.4305C84.474 12.1625 84.7345 11.9093 85.0621 11.6711C85.3152 11.5222 85.4641 11.4403 85.5088 11.4254H86.0671V15.2222H85.1738C84.9504 14.582 84.675 14.0087 84.3474 13.5025C83.6029 12.3411 82.717 11.7605 81.6897 11.7605C81.2877 11.7605 80.9452 11.9093 80.6623 12.2071C80.3794 12.5049 80.238 12.8772 80.238 13.3238C80.238 13.8896 80.4762 14.3661 80.9526 14.7532C81.4291 15.1254 82.1512 15.5572 83.119 16.0486C83.9082 16.4506 84.5335 16.8079 84.9951 17.1206C85.4716 17.4184 85.8736 17.7906 86.2011 18.2373C86.5436 18.684 86.7148 19.2051 86.7148 19.8007C86.7148 21.9596 85.0025 23.0391 81.578 23.0391Z" fill="#181F1A"/>
<path d="M93.1925 23.0391C91.3463 23.0391 89.8946 22.518 88.8374 21.4757C87.7952 20.4186 87.274 18.9669 87.274 17.1206C87.274 15.2743 87.7952 13.8301 88.8374 12.7878C89.8946 11.7307 91.3463 11.2021 93.1925 11.2021C95.0388 11.2021 96.4831 11.7307 97.5253 12.7878C98.5825 13.8301 99.1111 15.2743 99.1111 17.1206C99.1111 18.9669 98.5825 20.4186 97.5253 21.4757C96.4831 22.518 95.0388 23.0391 93.1925 23.0391ZM93.1925 22.5924C93.7881 22.5924 94.2869 22.1755 94.6889 21.3417C95.1058 20.5079 95.3143 19.1009 95.3143 17.1206C95.3143 15.1403 95.1058 13.7333 94.6889 12.8995C94.2869 12.0657 93.7881 11.6488 93.1925 11.6488C92.597 11.6488 92.0907 12.0657 91.6738 12.8995C91.2718 13.7333 91.0708 15.1403 91.0708 17.1206C91.0708 19.1009 91.2718 20.5079 91.6738 21.3417C92.0907 22.1755 92.597 22.5924 93.1925 22.5924Z" fill="#181F1A"/>
<path d="M99.7889 22.3691L101.129 22.0341V12.2071L99.7889 11.8721V11.5371H101.799C102.677 11.5371 103.37 11.82 103.876 12.3858C104.07 12.6091 104.233 12.8846 104.367 13.2122C104.591 12.7953 104.829 12.4602 105.082 12.2071C105.752 11.5371 106.519 11.2021 107.382 11.2021C108.246 11.2021 109.005 11.3957 109.661 11.7828C110.316 12.155 110.822 12.6687 111.179 13.3238C111.403 12.892 111.641 12.5421 111.894 12.2741C112.579 11.5594 113.346 11.2021 114.194 11.2021C114.983 11.2021 115.691 11.3659 116.316 11.6934C116.956 12.021 117.448 12.4677 117.79 13.0335C118.147 13.5993 118.326 14.2172 118.326 14.8872V22.0341L119.666 22.3691V22.7041H116.763C115.423 22.7041 114.753 22.0341 114.753 20.694V14.8872C114.753 13.9194 114.604 13.1973 114.306 12.7208C114.008 12.2295 113.673 11.9838 113.301 11.9838C112.869 11.9838 112.43 12.2816 111.983 12.8772C111.805 13.16 111.648 13.4578 111.514 13.7705V22.0341L112.854 22.3691V22.7041H106.601V22.3691L107.941 22.0341V14.8872C107.941 13.9194 107.792 13.1973 107.494 12.7208C107.196 12.2295 106.861 11.9838 106.489 11.9838C106.057 11.9838 105.618 12.2816 105.171 12.8772C104.993 13.16 104.836 13.4578 104.702 13.7705V22.0341L106.042 22.3691V22.7041H99.7889V22.3691Z" fill="#181F1A"/>
<path fill-rule="evenodd" clip-rule="evenodd" d="M14.3778 26.9686C14.2338 26.997 14.0843 27.0064 13.9329 26.9949C9.2546 26.64 4.82649 24.0558 2.30356 19.686C-0.21942 15.3161 -0.243252 10.1891 1.7886 5.95998C2.08359 5.346 2.72305 4.97681 3.40226 5.02835C5.14566 5.16063 6.85431 5.60247 8.44256 6.33093C9.64101 3.99414 11.4141 2.00068 13.5753 0.537075C14.1393 0.155122 14.877 0.155122 15.441 0.537075C17.5728 1.98081 19.3271 3.94011 20.5246 6.23593C22.0526 5.56398 23.6871 5.15477 25.3534 5.02835C26.0326 4.97681 26.6721 5.346 26.9671 5.95998C28.9989 10.1891 28.9751 15.3161 26.4521 19.686C23.9292 24.0558 19.5011 26.64 14.8227 26.9949C14.6713 27.0064 14.5219 26.997 14.3778 26.9686ZM17.8055 24.3196C20.6097 23.3659 23.0901 21.4304 24.686 18.6663C26.8102 14.987 26.8794 10.6847 25.2419 7.08483C23.8972 7.21528 22.5812 7.55919 21.3464 8.10216C21.9488 9.75891 22.2773 11.5471 22.2773 13.4121C22.2773 17.6624 20.5708 21.5142 17.8055 24.3196ZM18.7191 7.18424C17.7186 5.26355 16.2692 3.61305 14.5081 2.37126C12.7094 3.63965 11.2357 5.33443 10.2335 7.30801C11.8286 8.32806 13.2457 9.66988 14.3778 11.3048C15.5564 9.60288 17.0436 8.21858 18.7191 7.18424ZM15.5333 13.2828C16.558 11.5349 17.9382 10.1225 19.5298 9.0849C19.9891 10.4434 20.238 11.8987 20.238 13.4121C20.238 16.9059 18.9117 20.0902 16.7312 22.4889C17.3212 19.4589 16.9643 16.2318 15.5333 13.2828ZM13.2224 13.2828C12.2438 11.6135 10.9409 10.2502 9.43927 9.22714C9.01013 10.5448 8.77831 11.9514 8.77831 13.4121C8.77831 16.7267 9.97204 19.7628 11.9564 22.1137C11.4657 19.1937 11.8502 16.1104 13.2224 13.2828ZM14.3778 23.4856C15.1434 21.0511 15.1749 18.3952 14.3778 15.8775C13.5808 18.3952 13.6123 21.0511 14.3778 23.4856ZM4.06969 18.6663C5.73804 21.556 8.37309 23.54 11.3343 24.4435C8.49639 21.6281 6.73896 17.7254 6.73896 13.4121C6.73896 11.585 7.05428 9.83165 7.63349 8.20336C6.33436 7.60178 4.94016 7.22321 3.51379 7.08483C1.8763 10.6847 1.94547 14.987 4.06969 18.6663Z" fill="#181F1A"/>
</svg>
