<svg width="118" height="41" viewBox="0 0 118 41" fill="none" xmlns="http://www.w3.org/2000/svg">
<path d="M16.7383 1.3326C17.7883 0.726373 19.082 0.726374 20.132 1.3326L34.0352 9.35964L24.4215 14.9889C22.9334 13.4949 20.874 12.5703 18.5987 12.5703C16.2324 12.5703 14.0997 13.5703 12.6001 15.1708L2.75478 9.406L16.7383 1.3326Z" fill="#181F1A"/>
<path d="M10.7261 18.4221L0.878906 12.6562V28.774L10.6895 23.0295C10.488 22.3172 10.3803 21.5656 10.3803 20.7887C10.3803 19.966 10.5011 19.1716 10.7261 18.4221Z" fill="#181F1A"/>
<path d="M12.5119 26.311L2.90949 31.9336L16.7383 39.9177C17.7883 40.5239 19.082 40.5239 20.132 39.9177L33.8805 31.98L24.5132 26.495C23.0186 28.0439 20.9211 29.0072 18.5987 29.0072C16.1856 29.0072 14.0155 27.9672 12.5119 26.311Z" fill="#181F1A"/>
<path d="M26.4354 23.2719L35.9908 28.867C35.9912 28.8453 35.9914 28.8236 35.9914 28.8019V12.5628L26.3951 18.1818C26.6689 19.0009 26.8172 19.8775 26.8172 20.7887C26.8172 21.6542 26.6834 22.4885 26.4354 23.2719Z" fill="#181F1A"/>
<path fill-rule="evenodd" clip-rule="evenodd" d="M47.3653 30.0372C48.7426 30.8779 50.3971 31.2983 52.3289 31.2983C54.2607 31.2983 55.9152 30.8779 57.2925 30.0372C58.6787 29.1876 59.7385 28.0071 60.4719 26.4957C61.2142 24.9842 61.5853 23.2313 61.5853 21.237C61.5853 19.2426 61.2142 17.4897 60.4719 15.9783C59.7385 14.4668 58.6787 13.2908 57.2925 12.4501C55.9152 11.6005 54.2607 11.1757 52.3289 11.1757C50.3971 11.1757 48.7426 11.6005 47.3653 12.4501C45.9881 13.2908 44.9283 14.4668 44.186 15.9783C43.4526 17.4897 43.0859 19.2426 43.0859 21.237C43.0859 23.2313 43.4526 24.9842 44.186 26.4957C44.9283 28.0071 45.9881 29.1876 47.3653 30.0372ZM55.5619 27.3945C54.7034 27.9758 53.6257 28.262 52.3289 28.253C51.0321 28.2351 49.95 27.9355 49.0825 27.3542C48.2239 26.7729 47.58 25.9635 47.1507 24.9261C46.7214 23.8797 46.5068 22.65 46.5068 21.237C46.5068 19.8239 46.7214 18.5897 47.1507 17.5344C47.5889 16.4791 48.2373 15.6608 49.0959 15.0794C49.9544 14.4981 51.0321 14.2119 52.3289 14.2209C53.6257 14.2388 54.7034 14.5384 55.5619 15.1197C56.4295 15.701 57.0778 16.5149 57.5071 17.5612C57.9454 18.5987 58.1645 19.8239 58.1645 21.237C58.1645 22.65 57.9454 23.8842 57.5071 24.9395C57.0778 25.9948 56.4295 26.8131 55.5619 27.3945Z" fill="#181F1A"/>
<path d="M63.1823 30.2171C63.1823 30.5919 63.4862 30.8958 63.8611 30.8958H65.75C66.1249 30.8958 66.4288 30.5919 66.4288 30.2171V23.5309C66.4288 22.9764 66.4958 22.4622 66.63 21.9882C66.7641 21.5053 66.9698 21.076 67.2471 20.7004C67.5333 20.3247 67.9 20.0162 68.3471 19.7747C68.7943 19.5064 69.2951 19.3499 69.8496 19.3052C70.0576 19.2887 70.2565 19.2837 70.4463 19.2904C70.8985 19.3063 71.3387 18.9734 71.3387 18.5209V16.9825C71.3387 16.6507 71.0987 16.3629 70.7675 16.3444C70.5194 16.3306 70.2671 16.3338 70.0106 16.3539C69.5545 16.3807 69.1073 16.4657 68.6691 16.6088C68.2398 16.7429 67.8463 16.9307 67.4886 17.1722C67.0682 17.4315 66.706 17.7625 66.4019 18.1649C66.2695 18.3415 66.1488 18.5271 66.0397 18.7217V17.0863C66.0397 16.7114 65.7359 16.4075 65.361 16.4075H63.8611C63.4862 16.4075 63.1823 16.7114 63.1823 17.0863V30.2171Z" fill="#181F1A"/>
<path fill-rule="evenodd" clip-rule="evenodd" d="M79.7879 31.2983C78.3748 31.2983 77.1898 30.9629 76.2329 30.2921C76.0299 30.1499 75.8377 29.9968 75.656 29.8328V30.2171C75.656 30.5919 75.3521 30.8958 74.9773 30.8958H73.4774C73.1025 30.8958 72.7986 30.5919 72.7986 30.2171V12.2568C72.7986 11.882 73.1025 11.5781 73.4774 11.5781H75.3797C75.7546 11.5781 76.0585 11.882 76.0585 12.2568V17.1095C76.1027 17.0762 76.1474 17.0434 76.1926 17.0112C77.1317 16.3405 78.2899 16.0051 79.6671 16.0051C81.0355 16.0051 82.2205 16.3405 83.2221 17.0112C84.2327 17.673 85.0153 18.5808 85.5698 19.7345C86.1242 20.8792 86.4015 22.185 86.4015 23.6517C86.4015 25.1005 86.1287 26.4018 85.5832 27.5554C85.0376 28.7091 84.2685 29.6214 83.2758 30.2921C82.2831 30.9629 81.1204 31.2983 79.7879 31.2983ZM76.0182 21.1699C75.7768 21.8764 75.656 22.7037 75.656 23.6517C75.656 24.5907 75.7768 25.418 76.0182 26.1335C76.2686 26.8489 76.6577 27.4079 77.1853 27.8103C77.7219 28.2038 78.424 28.4006 79.2915 28.4006C80.1322 28.4006 80.8253 28.1904 81.3708 27.7701C81.9164 27.3498 82.3188 26.7818 82.5782 26.0664C82.8465 25.342 82.9806 24.5371 82.9806 23.6517C82.9806 22.7752 82.8465 21.9793 82.5782 21.2638C82.3099 20.5394 81.894 19.967 81.3306 19.5467C80.7672 19.1174 80.0517 18.9027 79.1842 18.9027C78.3614 18.9027 77.6906 19.104 77.1719 19.5064C76.6532 19.8999 76.2686 20.4544 76.0182 21.1699Z" fill="#181F1A"/>
<path d="M88.5536 30.2171C88.5536 30.5919 88.8574 30.8958 89.2323 30.8958H91.1078C91.4827 30.8958 91.7866 30.5919 91.7866 30.2171V17.0863C91.7866 16.7114 91.4827 16.4075 91.1078 16.4075H89.2323C88.8574 16.4075 88.5536 16.7114 88.5536 17.0863V30.2171Z" fill="#181F1A"/>
<path d="M103.224 30.3322C103.224 30.6589 102.991 30.9412 102.668 30.9884C101.902 31.1003 101.149 31.1455 100.406 31.1239C99.4942 31.106 98.6758 30.9405 97.9514 30.6275C97.227 30.3055 96.677 29.8002 96.3014 29.1116C95.9705 28.4856 95.7961 27.8461 95.7782 27.1932C95.7603 26.5404 95.7514 25.8025 95.7514 24.9798V18.943H93.8008C93.4259 18.943 93.122 18.6391 93.122 18.2642V17.0863C93.122 16.7114 93.4259 16.4075 93.8008 16.4075H95.7514V13.0618C95.7514 12.6869 96.0552 12.383 96.4301 12.383H98.2922C98.6671 12.383 98.971 12.6869 98.971 13.0618V16.4075H102.545C102.92 16.4075 103.224 16.7114 103.224 17.0863V18.2642C103.224 18.6391 102.92 18.943 102.545 18.943H98.971V24.7919C98.971 25.3733 98.9755 25.883 98.9844 26.3213C99.0023 26.7595 99.0962 27.1172 99.2661 27.3945C99.5881 27.9311 100.102 28.2307 100.809 28.2933C101.305 28.3372 101.849 28.3327 102.442 28.2797C102.855 28.2428 103.224 28.5584 103.224 28.9729V30.3322Z" fill="#181F1A"/>
<path d="M107.001 30.3055C108.056 30.9673 109.33 31.2983 110.824 31.2983C112.443 31.2983 113.811 30.9047 114.929 30.1177C115.866 29.4505 116.567 28.5444 117.033 27.3996C117.182 27.034 116.948 26.6369 116.563 26.5508L114.572 26.1057C114.234 26.03 113.898 26.2257 113.745 26.5374C113.513 27.0097 113.215 27.3893 112.849 27.6762C112.358 28.0697 111.682 28.2664 110.824 28.2664C109.608 28.2664 108.691 27.8416 108.074 26.992C107.457 26.1424 107.148 25.0289 107.148 23.6517C107.148 22.7663 107.278 21.9748 107.537 21.2772C107.796 20.5796 108.199 20.0341 108.744 19.6406C109.29 19.2381 109.983 19.0369 110.824 19.0369C111.566 19.0369 112.228 19.256 112.809 19.6942C113.231 20.006 113.566 20.4097 113.814 20.9055C113.976 21.2298 114.332 21.4307 114.682 21.336L116.638 20.8063C116.993 20.71 117.211 20.3463 117.089 19.9989C116.69 18.8652 116.006 17.9498 115.036 17.2527C113.9 16.4209 112.51 16.0051 110.864 16.0051C109.397 16.0051 108.132 16.336 107.068 16.9978C106.003 17.6507 105.181 18.5539 104.599 19.7076C104.027 20.8524 103.736 22.1671 103.727 23.6517C103.736 25.1094 104.018 26.4152 104.572 27.5689C105.136 28.7226 105.945 29.6348 107.001 30.3055Z" fill="#181F1A"/>
<path d="M88.4764 12.5035L89.3869 11.593C89.7845 11.1954 90.4292 11.1954 90.8268 11.593L91.7373 12.5035C92.1349 12.9011 92.1349 13.5458 91.7373 13.9434L90.8268 14.8539C90.4292 15.2515 89.7845 15.2515 89.3869 14.8539L88.4764 13.9434C88.0788 13.5458 88.0788 12.9011 88.4764 12.5035Z" fill="#181F1A"/>
</svg>
