<svg width="112" height="28" viewBox="0 0 112 28" fill="none" xmlns="http://www.w3.org/2000/svg">
<path d="M1.96053 5.94948C2.70152 4.52312 6.58903 1.06386 9.72621 0.391669C11.1326 0.0903364 11.648 0.867803 11.7132 1.9998C18.0589 2.73314 23.9849 8.07785 25.3442 14.5623C25.712 16.3163 25.7106 17.9869 25.3934 19.5054L26.9419 19.481C26.2002 21.511 23.733 25.7583 17.9241 26.9763C17.7031 27.0226 17.4824 27.0593 17.2622 27.0869C16.708 27.1684 16.1332 27.2105 15.5398 27.2105C8.66045 27.2105 1.89653 21.5477 0.432108 14.5623C-0.265441 11.2349 0.365233 8.20761 1.96053 5.94948Z" fill="#181F1A"/>
<ellipse cx="12.2306" cy="12.8035" rx="12.2306" ry="12.8035" transform="matrix(1 0 0.205179 0.978724 0.384766 0.0400391)" fill="#181F1A"/>
<ellipse cx="9.60591" cy="10.0514" rx="9.60591" ry="10.0514" transform="matrix(1 0 0.205179 0.978724 3.83398 2.14832)" fill="white"/>
<ellipse cx="7.11" cy="7.26259" rx="7.11" ry="7.26259" transform="matrix(1 0 0.205179 0.978724 7.15234 4.56177)" fill="#181F1A"/>
<circle cx="4.55598" cy="4.55598" r="4.55598" transform="matrix(1 0 0.205179 0.978724 10.6934 6.91663)" fill="white"/>
<circle cx="2.24856" cy="2.24856" r="2.24856" transform="matrix(1 0 0.205179 0.978724 13.4727 9.17529)" fill="#181F1A"/>
<path d="M48.026 19.8529C48.026 20.0092 48.1527 20.1359 48.309 20.1359H50.4605C50.6168 20.1359 50.7435 20.0092 50.7435 19.8529V9.51993H48.309C48.1527 9.51993 48.026 9.64664 48.026 9.80295V19.8529Z" fill="#181F1A"/>
<path d="M48.1135 7.83858C48.3742 8.11228 48.7717 8.24914 49.3061 8.24914C49.8405 8.24914 50.2315 8.11228 50.4791 7.83858C50.7268 7.55183 50.8506 7.19992 50.8506 6.78284C50.8506 6.3397 50.7268 5.98127 50.4791 5.70756C50.2315 5.43385 49.8405 5.297 49.3061 5.297C48.7717 5.297 48.3742 5.43385 48.1135 5.70756C47.8659 5.98127 47.7421 6.3397 47.7421 6.78284C47.7421 7.19992 47.8659 7.55183 48.1135 7.83858Z" fill="#181F1A"/>
<path fill-rule="evenodd" clip-rule="evenodd" d="M43.7423 15.1701C42.9081 15.5611 41.8915 15.7566 40.6924 15.7566H38.5418V19.8529C38.5418 20.0092 38.4151 20.1359 38.2588 20.1359H36.0486C35.8923 20.1359 35.7656 20.0092 35.7656 19.8529V6.04924C35.7656 5.89293 35.8923 5.76621 36.0486 5.76621H38.2588C38.2893 5.76621 38.3187 5.77105 38.3463 5.78C38.3739 5.77105 38.4033 5.76621 38.4338 5.76621H40.6924C41.8915 5.76621 42.9081 5.96172 43.7423 6.35273C44.5895 6.74374 45.2346 7.30419 45.6778 8.03408C46.1209 8.75094 46.3425 9.60465 46.3425 10.5952V10.908C46.3425 11.8986 46.1209 12.7588 45.6778 13.4887C45.2346 14.2056 44.5895 14.766 43.7423 15.1701ZM42.3346 8.5033C41.9567 8.28172 41.4874 8.17094 40.927 8.17094H38.5418V13.3518H40.927C41.4874 13.3518 41.9567 13.2411 42.3346 13.0195C42.7256 12.7979 43.0189 12.4916 43.2144 12.1006C43.4229 11.7096 43.5272 11.2599 43.5272 10.7516C43.5272 10.2433 43.4229 9.79364 43.2144 9.40262C43.0189 9.01161 42.7256 8.71184 42.3346 8.5033Z" fill="#181F1A"/>
<path d="M53.1809 20.1359C53.0246 20.1359 52.8979 20.0092 52.8979 19.8529V9.80295C52.8979 9.64664 53.0246 9.51993 53.1809 9.51993H54.7655C54.9218 9.51993 55.0485 9.64664 55.0485 9.80295V12.136C55.1115 11.8637 55.1897 11.6108 55.2831 11.3772C55.5698 10.6473 55.9934 10.0999 56.5539 9.73499C57.1274 9.37004 57.8377 9.18757 58.6849 9.18757H58.8022C60.0665 9.18757 61.0244 9.59813 61.6761 10.4193C62.3278 11.2273 62.6537 12.4395 62.6537 14.0557V19.8529C62.6537 20.0092 62.527 20.1359 62.3706 20.1359H60.2192C60.0628 20.1359 59.9361 20.0092 59.9361 19.8529V13.8211C59.9361 13.1694 59.7471 12.6415 59.3692 12.2375C59.0042 11.8334 58.4959 11.6314 57.8442 11.6314C57.1795 11.6314 56.6386 11.8399 56.2215 12.257C55.8175 12.6611 55.6154 13.2085 55.6154 13.8993V19.8529C55.6154 20.0092 55.4887 20.1359 55.3324 20.1359H53.1809Z" fill="#181F1A"/>
<path fill-rule="evenodd" clip-rule="evenodd" d="M72.7894 15.1701C71.9553 15.5611 70.9386 15.7566 69.7395 15.7566H67.589V19.8529C67.589 20.0092 67.4623 20.1359 67.3059 20.1359H65.0958C64.9395 20.1359 64.8128 20.0092 64.8128 19.8529V6.04924C64.8128 5.89293 64.9395 5.76621 65.0958 5.76621H67.3059C67.3365 5.76621 67.3659 5.77105 67.3935 5.78C67.421 5.77105 67.4504 5.76621 67.481 5.76621H69.7395C70.9386 5.76621 71.9553 5.96172 72.7894 6.35273C73.6366 6.74374 74.2818 7.30419 74.7249 8.03408C75.1681 8.75094 75.3897 9.60465 75.3897 10.5952V10.908C75.3897 11.8986 75.1681 12.7588 74.7249 13.4887C74.2818 14.2056 73.6366 14.766 72.7894 15.1701ZM71.3818 8.5033C71.0038 8.28172 70.5346 8.17094 69.9741 8.17094H67.589V13.3518H69.9741C70.5346 13.3518 71.0038 13.2411 71.3818 13.0195C71.7728 12.7979 72.0661 12.4916 72.2616 12.1006C72.4701 11.7096 72.5744 11.2599 72.5744 10.7516C72.5744 10.2433 72.4701 9.79364 72.2616 9.40262C72.0661 9.01161 71.7728 8.71184 71.3818 8.5033Z" fill="#181F1A"/>
<path fill-rule="evenodd" clip-rule="evenodd" d="M81.4384 20.5074C80.5 20.5074 79.6724 20.3575 78.9555 20.0577C78.2386 19.7579 77.6326 19.3539 77.1373 18.8456C76.642 18.3242 76.264 17.7377 76.0034 17.086C75.7557 16.4343 75.6319 15.7566 75.6319 15.0528V14.6422C75.6319 13.9123 75.7622 13.2215 76.0229 12.5698C76.2966 11.9051 76.6811 11.3186 77.1764 10.8103C77.6847 10.2889 78.2973 9.88487 79.0142 9.59813C79.731 9.29836 80.5391 9.14847 81.4384 9.14847C82.3378 9.14847 83.1459 9.29836 83.8627 9.59813C84.5796 9.88487 85.1856 10.2889 85.6809 10.8103C86.1892 11.3186 86.5737 11.9051 86.8344 12.5698C87.0951 13.2215 87.2254 13.9123 87.2254 14.6422V15.0528C87.2254 15.7566 87.0951 16.4343 86.8344 17.086C86.5868 17.7377 86.2153 18.3242 85.72 18.8456C85.2247 19.3539 84.6187 19.7579 83.9018 20.0577C83.185 20.3575 82.3638 20.5074 81.4384 20.5074ZM81.4384 18.1808C82.1032 18.1808 82.6636 18.0375 83.1198 17.7507C83.576 17.451 83.9214 17.0534 84.156 16.5581C84.3906 16.0498 84.5079 15.4763 84.5079 14.8377C84.5079 14.186 84.3841 13.6125 84.1364 13.1172C83.9018 12.6089 83.5499 12.2114 83.0807 11.9247C82.6245 11.6249 82.0771 11.475 81.4384 11.475C80.7998 11.475 80.2458 11.6249 79.7766 11.9247C79.3205 12.2114 78.9685 12.6089 78.7209 13.1172C78.4733 13.6125 78.3494 14.186 78.3494 14.8377C78.3494 15.4763 78.4667 16.0498 78.7013 16.5581C78.949 17.0534 79.3009 17.451 79.7571 17.7507C80.2133 18.0375 80.7737 18.1808 81.4384 18.1808Z" fill="#181F1A"/>
<path d="M89.1357 19.8529C89.1357 20.0092 89.2624 20.1359 89.4187 20.1359H91.5702C91.7265 20.1359 91.8533 20.0092 91.8533 19.8529V9.51993H89.4187C89.2624 9.51993 89.1357 9.64664 89.1357 9.80295V19.8529Z" fill="#181F1A"/>
<path d="M89.2232 7.83858C89.4839 8.11228 89.8814 8.24914 90.4158 8.24914C90.9502 8.24914 91.3412 8.11228 91.5889 7.83858C91.8365 7.55183 91.9603 7.19992 91.9603 6.78284C91.9603 6.3397 91.8365 5.98127 91.5889 5.70756C91.3412 5.43385 90.9502 5.297 90.4158 5.297C89.8814 5.297 89.4839 5.43385 89.2232 5.70756C88.9756 5.98127 88.8518 6.3397 88.8518 6.78284C88.8518 7.19992 88.9756 7.55183 89.2232 7.83858Z" fill="#181F1A"/>
<path d="M94.2907 20.1359C94.1344 20.1359 94.0076 20.0092 94.0076 19.8529V9.80295C94.0076 9.64664 94.1344 9.51993 94.2907 9.51993H95.8752C96.0315 9.51993 96.1582 9.64664 96.1582 9.80295V12.136C96.2212 11.8637 96.2994 11.6108 96.3928 11.3772C96.6796 10.6473 97.1031 10.0999 97.6636 9.73499C98.2371 9.37004 98.9474 9.18757 99.7946 9.18757H99.9119C101.176 9.18757 102.134 9.59813 102.786 10.4193C103.438 11.2273 103.763 12.4395 103.763 14.0557V19.8529C103.763 20.0092 103.637 20.1359 103.48 20.1359H101.329C101.173 20.1359 101.046 20.0092 101.046 19.8529V13.8211C101.046 13.1694 100.857 12.6415 100.479 12.2375C100.114 11.8334 99.6056 11.6314 98.9539 11.6314C98.2892 11.6314 97.7483 11.8399 97.3312 12.257C96.9272 12.6611 96.7252 13.2085 96.7252 13.8993V19.8529C96.7252 20.0092 96.5985 20.1359 96.4422 20.1359H94.2907Z" fill="#181F1A"/>
<path d="M107.897 19.9013C108.536 20.1489 109.344 20.2728 110.321 20.2728H111.563C111.72 20.2728 111.846 20.146 111.846 19.9897V18.2293C111.846 18.073 111.72 17.9462 111.563 17.9462H110.185C109.663 17.9462 109.259 17.8094 108.972 17.5357C108.699 17.2489 108.562 16.8449 108.562 16.3235L108.571 11.5141H111.563C111.72 11.5141 111.846 11.3874 111.846 11.2311V9.80295C111.846 9.64664 111.72 9.51993 111.563 9.51993H108.575L108.581 6.81227C108.581 6.65574 108.454 6.52869 108.298 6.52869H106.322C106.166 6.52869 106.04 6.65505 106.039 6.81113L106.034 9.51993H104.622C104.466 9.51993 104.339 9.64664 104.339 9.80295V11.2311C104.339 11.3874 104.466 11.5141 104.622 11.5141H106.03L106.02 16.1476C106.02 17.1772 106.177 17.9984 106.489 18.611C106.802 19.2105 107.271 19.6406 107.897 19.9013Z" fill="#181F1A"/>
</svg>
