<svg width="112" height="27" viewBox="0 0 112 27" fill="none" xmlns="http://www.w3.org/2000/svg">
<path d="M33.2825 7.62085C34.3443 7.62085 35.2633 7.79781 36.0396 8.15172C36.8274 8.50563 37.4324 9.00795 37.8549 9.65869C38.2773 10.3094 38.4885 11.08 38.4885 11.9705C38.4885 12.8496 38.2773 13.6202 37.8549 14.2824C37.4324 14.9331 36.8274 15.4354 36.0396 15.7894C35.2633 16.1318 34.3443 16.3031 33.2825 16.3031H30.868V19.6082H28.0938V7.62085H33.2825ZM33.1284 14.0426C33.9618 14.0426 34.5954 13.8657 35.0293 13.5118C35.4631 13.1464 35.68 12.6327 35.68 11.9705C35.68 11.297 35.4631 10.7832 35.0293 10.4293C34.5954 10.064 33.9618 9.88132 33.1284 9.88132H30.868V14.0426H33.1284Z" fill="#181F1A"/>
<path d="M41.976 11.6109C42.2957 11.1657 42.7238 10.8289 43.2604 10.6006C43.8084 10.3722 44.4363 10.2581 45.1441 10.2581V12.724C44.8473 12.7012 44.6475 12.6898 44.5447 12.6898C43.7798 12.6898 43.1805 12.9067 42.7466 13.3405C42.3128 13.7629 42.0959 14.4022 42.0959 15.2585V19.6082H39.4244V10.3951H41.976V11.6109Z" fill="#181F1A"/>
<path d="M50.1766 19.7452C49.2062 19.7452 48.3329 19.5454 47.5566 19.1458C46.7917 18.7348 46.1923 18.1697 45.7585 17.4505C45.3246 16.7312 45.1077 15.9149 45.1077 15.0016C45.1077 14.0883 45.3246 13.272 45.7585 12.5528C46.1923 11.8335 46.7917 11.2741 47.5566 10.8746C48.3329 10.4636 49.2062 10.2581 50.1766 10.2581C51.147 10.2581 52.0147 10.4636 52.7796 10.8746C53.5445 11.2741 54.1439 11.8335 54.5777 12.5528C55.0115 13.272 55.2284 14.0883 55.2284 15.0016C55.2284 15.9149 55.0115 16.7312 54.5777 17.4505C54.1439 18.1697 53.5445 18.7348 52.7796 19.1458C52.0147 19.5454 51.147 19.7452 50.1766 19.7452ZM50.1766 17.5532C50.8616 17.5532 51.421 17.3249 51.8549 16.8682C52.3001 16.4001 52.5227 15.7779 52.5227 15.0016C52.5227 14.2253 52.3001 13.6088 51.8549 13.1521C51.421 12.6841 50.8616 12.45 50.1766 12.45C49.4917 12.45 48.9265 12.6841 48.4813 13.1521C48.0361 13.6088 47.8134 14.2253 47.8134 15.0016C47.8134 15.7779 48.0361 16.4001 48.4813 16.8682C48.9265 17.3249 49.4917 17.5532 50.1766 17.5532Z" fill="#181F1A"/>
<path d="M67.3403 7.62085V19.6082H65.0627L59.0862 12.3302V19.6082H56.3462V7.62085H58.641L64.6004 14.8989V7.62085H67.3403Z" fill="#181F1A"/>
<path d="M72.8479 10.2581C74.275 10.2581 75.371 10.6006 76.1359 11.2855C76.9008 11.9591 77.2832 12.9809 77.2832 14.3509V19.6082H74.783V18.4608C74.2807 19.3171 73.3446 19.7452 71.9746 19.7452C71.2668 19.7452 70.6503 19.6253 70.1251 19.3856C69.6114 19.1458 69.2175 18.8147 68.9435 18.3923C68.6695 17.9699 68.5325 17.4904 68.5325 16.9538C68.5325 16.0976 68.8522 15.424 69.4915 14.9331C70.1422 14.4422 71.1412 14.1968 72.4883 14.1968H74.6118C74.6118 13.6145 74.4348 13.1693 74.0809 12.861C73.727 12.5414 73.1961 12.3815 72.4883 12.3815C71.9974 12.3815 71.5122 12.4614 71.0327 12.6213C70.5646 12.7697 70.1651 12.9752 69.834 13.2378L68.875 11.3712C69.3773 11.0173 69.9767 10.7433 70.6731 10.5492C71.3809 10.3551 72.1059 10.2581 72.8479 10.2581ZM72.6424 17.9471C73.0991 17.9471 73.5044 17.8443 73.8583 17.6388C74.2122 17.4219 74.4634 17.108 74.6118 16.697V15.7551H72.7794C71.6835 15.7551 71.1355 16.1147 71.1355 16.834C71.1355 17.1765 71.2668 17.4505 71.5293 17.656C71.8033 17.85 72.1744 17.9471 72.6424 17.9471Z" fill="#181F1A"/>
<path d="M84.7871 19.1629C84.5245 19.357 84.1992 19.5054 83.811 19.6082C83.4342 19.6995 83.0347 19.7452 82.6123 19.7452C81.5163 19.7452 80.6657 19.4655 80.0607 18.9061C79.467 18.3467 79.1702 17.5247 79.1702 16.4401V12.6555H77.7488V10.6006H79.1702V8.35721H81.8416V10.6006H84.1364V12.6555H81.8416V16.4058C81.8416 16.794 81.9387 17.0965 82.1328 17.3135C82.3383 17.519 82.6237 17.6217 82.989 17.6217C83.4114 17.6217 83.771 17.5075 84.0679 17.2792L84.7871 19.1629Z" fill="#181F1A"/>
<path d="M94.7121 10.3951V19.6082H92.1776V18.5122C91.8237 18.9118 91.4013 19.22 90.9104 19.4369C90.4195 19.6424 89.8886 19.7452 89.3178 19.7452C88.1076 19.7452 87.1487 19.397 86.4408 18.7006C85.733 18.0042 85.3791 16.971 85.3791 15.601V10.3951H88.0506V15.2071C88.0506 16.6913 88.6728 17.4333 89.9172 17.4333C90.5565 17.4333 91.0702 17.2278 91.4584 16.8168C91.8466 16.3944 92.0406 15.7722 92.0406 14.9502V10.3951H94.7121Z" fill="#181F1A"/>
<path d="M98.8824 11.6109C99.202 11.1657 99.6302 10.8289 100.167 10.6006C100.715 10.3722 101.343 10.2581 102.05 10.2581V12.724C101.754 12.7012 101.554 12.6898 101.451 12.6898C100.686 12.6898 100.087 12.9067 99.653 13.3405C99.2192 13.7629 99.0022 14.4022 99.0022 15.2585V19.6082H96.3308V10.3951H98.8824V11.6109Z" fill="#181F1A"/>
<path d="M111.724 15.0359C111.724 15.0701 111.707 15.3099 111.672 15.7551H104.703C104.828 16.3259 105.125 16.7769 105.593 17.108C106.061 17.439 106.643 17.6046 107.34 17.6046C107.819 17.6046 108.242 17.5361 108.607 17.3991C108.984 17.2507 109.332 17.0223 109.652 16.7141L111.073 18.2553C110.205 19.2486 108.938 19.7452 107.271 19.7452C106.232 19.7452 105.313 19.5454 104.514 19.1458C103.715 18.7348 103.099 18.1697 102.665 17.4505C102.231 16.7312 102.014 15.9149 102.014 15.0016C102.014 14.0997 102.225 13.2891 102.648 12.5699C103.082 11.8392 103.669 11.2741 104.412 10.8746C105.165 10.4636 106.004 10.2581 106.929 10.2581C107.831 10.2581 108.647 10.4521 109.378 10.8403C110.108 11.2285 110.679 11.7879 111.09 12.5185C111.513 13.2378 111.724 14.0769 111.724 15.0359ZM106.946 12.2788C106.341 12.2788 105.833 12.45 105.422 12.7925C105.011 13.135 104.76 13.6031 104.668 14.1968H109.206C109.115 13.6145 108.864 13.1521 108.453 12.8096C108.042 12.4557 107.54 12.2788 106.946 12.2788Z" fill="#181F1A"/>
<path fill-rule="evenodd" clip-rule="evenodd" d="M12.8797 0.945027C12.4727 0.709568 11.9709 0.709568 11.5638 0.945027C8.67268 2.61746 6.72276 5.74659 6.72276 9.3327C6.72276 9.84381 6.76237 10.3456 6.83867 10.8353C4.84844 10.1594 2.69348 10.4054 0.933348 11.4196C0.525915 11.6544 0.274998 12.089 0.275391 12.5592C0.277466 15.04 1.56618 17.4578 3.87419 18.7903C5.00648 19.444 6.24232 19.7547 7.46138 19.7553C7.27592 20.2809 7.17501 20.8463 7.17501 21.4353C7.17501 24.2224 9.43444 26.4819 12.2216 26.4819C15.0087 26.4819 17.2682 24.2224 17.2682 21.4353C17.2682 20.845 17.1668 20.2784 16.9806 19.7519C18.1269 19.7157 19.2815 19.4043 20.3449 18.7904C22.6529 17.4579 23.9416 15.0401 23.9437 12.5593C23.9441 12.0891 23.6931 11.6545 23.2857 11.4197C21.5949 10.4454 19.5398 10.1801 17.6163 10.7598C17.6851 10.2941 17.7208 9.81758 17.7208 9.3327C17.7208 5.74659 15.7709 2.61746 12.8797 0.945027ZM9.35077 9.3327C9.35077 7.00398 10.4783 4.93737 12.2218 3.651C13.9652 4.93737 15.0928 7.00398 15.0928 9.3327C15.0928 11.6614 13.9652 13.728 12.2218 15.0144C10.4783 13.728 9.35077 11.6614 9.35077 9.3327ZM17.4041 13.6967C18.6175 12.9961 20.0197 12.9146 21.2445 13.358C21.016 14.6404 20.2444 15.8139 19.0309 16.5145C17.8174 17.2151 16.4153 17.2966 15.1904 16.8533C15.4189 15.5709 16.1906 14.3974 17.4041 13.6967ZM2.97458 13.3579C4.19941 12.9145 5.60153 12.996 6.81501 13.6966C8.0285 14.3972 8.80014 15.5708 9.02864 16.8532C7.8038 17.2965 6.40168 17.215 5.1882 16.5144C3.97471 15.8138 3.20307 14.6403 2.97458 13.3579ZM9.80302 21.4353C9.80302 20.0996 10.8859 19.0167 12.2216 19.0167C13.5573 19.0167 14.6402 20.0996 14.6402 21.4353C14.6402 22.771 13.5573 23.8539 12.2216 23.8539C10.8859 23.8539 9.80302 22.771 9.80302 21.4353Z" fill="#181F1A"/>
</svg>
