<svg width="116" height="23" viewBox="0 0 116 23" fill="none" xmlns="http://www.w3.org/2000/svg">
<path d="M14.5703 2.8107H6.5491V0.304077H14.5703C17.339 0.304077 19.5835 2.54858 19.5835 5.31732V13.3385H17.0769V5.31732C17.0769 3.93295 15.9547 2.8107 14.5703 2.8107Z" fill="#181F1A"/>
<path d="M5.54645 16.8478H13.5676V19.3544H5.54645C2.77771 19.3544 0.533203 17.1099 0.533203 14.3412L0.533204 6.31997H3.03983L3.03983 14.3412C3.03983 15.7255 4.16208 16.8478 5.54645 16.8478Z" fill="#181F1A"/>
<path fill-rule="evenodd" clip-rule="evenodd" d="M15.0716 9.82925C15.0716 12.598 12.8271 14.8425 10.0584 14.8425C7.28963 14.8425 5.04513 12.598 5.04513 9.82925C5.04513 7.06051 7.28963 4.816 10.0584 4.816C12.8271 4.816 15.0716 7.06051 15.0716 9.82925ZM12.565 9.82925C12.565 11.2136 11.4427 12.3359 10.0584 12.3359C8.674 12.3359 7.55175 11.2136 7.55175 9.82925C7.55175 8.44488 8.674 7.32262 10.0584 7.32262C11.4427 7.32262 12.565 8.44488 12.565 9.82925Z" fill="#181F1A"/>
<path d="M30.2803 17.758C29.3309 17.758 28.4764 17.5953 27.7168 17.2697C26.9573 16.9307 26.3605 16.4559 25.9264 15.8456C25.4924 15.2352 25.2754 14.5231 25.2754 13.7093H27.7575C27.8118 14.3197 28.0491 14.8215 28.4696 15.2149C28.9036 15.6082 29.5072 15.8049 30.2803 15.8049C31.0806 15.8049 31.7045 15.615 32.1521 15.2352C32.5997 14.8419 32.8235 14.34 32.8235 13.7297C32.8235 13.2549 32.6811 12.8684 32.3963 12.57C32.125 12.2716 31.7791 12.041 31.3586 11.8782C30.9517 11.7155 30.3821 11.5391 29.6496 11.3492C28.7273 11.1051 27.9745 10.861 27.3913 10.6168C26.8216 10.3591 26.3333 9.96576 25.9264 9.43679C25.5195 8.90781 25.3161 8.2025 25.3161 7.32087C25.3161 6.50705 25.5195 5.79497 25.9264 5.18461C26.3333 4.57425 26.903 4.10631 27.6355 3.78078C28.3679 3.45525 29.2156 3.29249 30.1786 3.29249C31.5485 3.29249 32.6675 3.63836 33.5356 4.3301C34.4172 5.00828 34.9055 5.94417 35.0005 7.13776H32.437C32.3963 6.62235 32.1521 6.18153 31.7045 5.81531C31.2569 5.4491 30.6669 5.26599 29.9345 5.26599C29.2699 5.26599 28.7273 5.43553 28.3068 5.77462C27.8864 6.11371 27.6761 6.602 27.6761 7.23949C27.6761 7.67352 27.805 8.03296 28.0627 8.31779C28.334 8.58906 28.6731 8.80608 29.08 8.96884C29.4869 9.13161 30.043 9.30793 30.7483 9.49782C31.6842 9.75553 32.4437 10.0132 33.027 10.2709C33.6238 10.5287 34.1256 10.9288 34.5325 11.4713C34.953 12.0003 35.1632 12.7124 35.1632 13.6076C35.1632 14.3264 34.9666 15.0046 34.5732 15.6421C34.1934 16.2796 33.6305 16.795 32.8846 17.1884C32.1521 17.5681 31.284 17.758 30.2803 17.758Z" fill="black"/>
<path d="M42.5387 6.22222C43.4204 6.22222 44.2071 6.40533 44.8988 6.77154C45.6041 7.13776 46.1534 7.6803 46.5468 8.39917C46.9401 9.11804 47.1368 9.98611 47.1368 11.0034V17.6156H44.8378V11.3492C44.8378 10.3455 44.5868 9.5792 44.085 9.05022C43.5831 8.50768 42.8982 8.23641 42.0301 8.23641C41.162 8.23641 40.4703 8.50768 39.9549 9.05022C39.453 9.5792 39.2021 10.3455 39.2021 11.3492V17.6156H36.8827V6.40533H39.2021V7.68708C39.5819 7.22592 40.0634 6.86649 40.6466 6.60878C41.2434 6.35107 41.8741 6.22222 42.5387 6.22222Z" fill="black"/>
<path d="M48.3049 11.9596C48.3049 10.8338 48.5355 9.83691 48.9966 8.96884C49.4714 8.10077 50.1088 7.42938 50.9091 6.95465C51.7229 6.46637 52.6181 6.22222 53.5947 6.22222C54.4763 6.22222 55.2427 6.39855 55.8937 6.7512C56.5583 7.09029 57.0873 7.51754 57.4806 8.03296V6.40533H59.8204V17.6156H57.4806V15.9473C57.0873 16.4763 56.5515 16.9171 55.8734 17.2697C55.1952 17.6224 54.4221 17.7987 53.554 17.7987C52.591 17.7987 51.7093 17.5546 50.9091 17.0663C50.1088 16.5644 49.4714 15.8727 48.9966 14.9911C48.5355 14.0959 48.3049 13.0854 48.3049 11.9596ZM57.4806 12.0003C57.4806 11.2272 57.3179 10.5558 56.9924 9.98611C56.6804 9.41644 56.2667 8.98241 55.7513 8.68401C55.2359 8.38561 54.6798 8.23641 54.083 8.23641C53.4862 8.23641 52.9301 8.38561 52.4147 8.68401C51.8992 8.96884 51.4788 9.39609 51.1532 9.96576C50.8413 10.5219 50.6853 11.1865 50.6853 11.9596C50.6853 12.7327 50.8413 13.4109 51.1532 13.9941C51.4788 14.5774 51.8992 15.025 52.4147 15.3369C52.9436 15.6353 53.4997 15.7845 54.083 15.7845C54.6798 15.7845 55.2359 15.6353 55.7513 15.3369C56.2667 15.0385 56.6804 14.6045 56.9924 14.0348C57.3179 13.4516 57.4806 12.7734 57.4806 12.0003Z" fill="black"/>
<path d="M64.1689 8.0533C64.5622 7.53789 65.098 7.10385 65.7761 6.7512C66.4543 6.39855 67.2207 6.22222 68.0752 6.22222C69.0517 6.22222 69.9402 6.46637 70.7404 6.95465C71.5542 7.42938 72.1917 8.10077 72.6529 8.96884C73.114 9.83691 73.3446 10.8338 73.3446 11.9596C73.3446 13.0854 73.114 14.0959 72.6529 14.9911C72.1917 15.8727 71.5542 16.5644 70.7404 17.0663C69.9402 17.5546 69.0517 17.7987 68.0752 17.7987C67.2207 17.7987 66.4611 17.6292 65.7965 17.2901C65.1319 16.9374 64.5893 16.5034 64.1689 15.988V22.9461H61.8495V6.40533H64.1689V8.0533ZM70.9846 11.9596C70.9846 11.1865 70.8218 10.5219 70.4963 9.96576C70.1843 9.39609 69.7638 8.96884 69.2349 8.68401C68.7194 8.38561 68.1633 8.23641 67.5665 8.23641C66.9833 8.23641 66.4272 8.38561 65.8982 8.68401C65.3828 8.98241 64.9623 9.41644 64.6368 9.98611C64.3248 10.5558 64.1689 11.2272 64.1689 12.0003C64.1689 12.7734 64.3248 13.4516 64.6368 14.0348C64.9623 14.6045 65.3828 15.0385 65.8982 15.3369C66.4272 15.6353 66.9833 15.7845 67.5665 15.7845C68.1633 15.7845 68.7194 15.6353 69.2349 15.3369C69.7638 15.025 70.1843 14.5774 70.4963 13.9941C70.8218 13.4109 70.9846 12.7327 70.9846 11.9596Z" fill="black"/>
<path d="M79.28 17.758C78.3306 17.758 77.4761 17.5953 76.7165 17.2697C75.957 16.9307 75.3602 16.4559 74.9261 15.8456C74.4921 15.2352 74.2751 14.5231 74.2751 13.7093H76.7572C76.8115 14.3197 77.0488 14.8215 77.4693 15.2149C77.9033 15.6082 78.5069 15.8049 79.28 15.8049C80.0803 15.8049 80.7042 15.615 81.1518 15.2352C81.5994 14.8419 81.8232 14.34 81.8232 13.7297C81.8232 13.2549 81.6808 12.8684 81.396 12.57C81.1247 12.2716 80.7788 12.041 80.3583 11.8782C79.9514 11.7155 79.3818 11.5391 78.6493 11.3492C77.727 11.1051 76.9742 10.861 76.391 10.6168C75.8213 10.3591 75.333 9.96576 74.9261 9.43679C74.5192 8.90781 74.3158 8.2025 74.3158 7.32087C74.3158 6.50705 74.5192 5.79497 74.9261 5.18461C75.333 4.57425 75.9027 4.10631 76.6352 3.78078C77.3676 3.45525 78.2153 3.29249 79.1783 3.29249C80.5482 3.29249 81.6672 3.63836 82.5353 4.3301C83.4169 5.00828 83.9052 5.94417 84.0002 7.13776H81.4367C81.396 6.62235 81.1518 6.18153 80.7042 5.81531C80.2566 5.4491 79.6666 5.26599 78.9342 5.26599C78.2696 5.26599 77.727 5.43553 77.3065 5.77462C76.8861 6.11371 76.6758 6.602 76.6758 7.23949C76.6758 7.67352 76.8047 8.03296 77.0624 8.31779C77.3337 8.58906 77.6728 8.80608 78.0797 8.96884C78.4866 9.13161 79.0427 9.30793 79.748 9.49782C80.6839 9.75553 81.4434 10.0132 82.0267 10.2709C82.6235 10.5287 83.1253 10.9288 83.5322 11.4713C83.9527 12.0003 84.1629 12.7124 84.1629 13.6076C84.1629 14.3264 83.9663 15.0046 83.5729 15.6421C83.1931 16.2796 82.6302 16.795 81.8843 17.1884C81.1518 17.5681 80.2837 17.758 79.28 17.758Z" fill="black"/>
<path d="M91.6808 6.22222C92.5354 6.22222 93.2949 6.40533 93.9595 6.77154C94.6377 7.13776 95.1667 7.6803 95.5465 8.39917C95.9398 9.11804 96.1365 9.98611 96.1365 11.0034V17.6156H93.8375V11.3492C93.8375 10.3455 93.5865 9.5792 93.0847 9.05022C92.5828 8.50768 91.8979 8.23641 91.0298 8.23641C90.1617 8.23641 89.47 8.50768 88.9546 9.05022C88.4527 9.5792 88.2018 10.3455 88.2018 11.3492V17.6156H85.8824V2.56006H88.2018V7.70743C88.5951 7.23271 89.0902 6.86649 89.687 6.60878C90.2974 6.35107 90.962 6.22222 91.6808 6.22222Z" fill="black"/>
<path d="M102.94 17.7987C101.882 17.7987 100.926 17.5614 100.072 17.0866C99.2171 16.5983 98.5457 15.9202 98.0574 15.0521C97.5691 14.1705 97.3249 13.1532 97.3249 12.0003C97.3249 10.861 97.5759 9.85047 98.0777 8.96884C98.5796 8.08721 99.2645 7.40903 100.133 6.93431C101.001 6.45958 101.97 6.22222 103.042 6.22222C104.114 6.22222 105.083 6.45958 105.951 6.93431C106.819 7.40903 107.504 8.08721 108.006 8.96884C108.508 9.85047 108.759 10.861 108.759 12.0003C108.759 13.1396 108.501 14.1501 107.986 15.0318C107.47 15.9134 106.765 16.5983 105.87 17.0866C104.988 17.5614 104.012 17.7987 102.94 17.7987ZM102.94 15.7845C103.537 15.7845 104.093 15.6421 104.609 15.3573C105.138 15.0724 105.565 14.6452 105.89 14.0755C106.216 13.5059 106.379 12.8141 106.379 12.0003C106.379 11.1865 106.223 10.5015 105.911 9.94542C105.599 9.37575 105.185 8.9485 104.67 8.66366C104.154 8.37883 103.598 8.23641 103.001 8.23641C102.404 8.23641 101.848 8.37883 101.333 8.66366C100.831 8.9485 100.431 9.37575 100.133 9.94542C99.8342 10.5015 99.685 11.1865 99.685 12.0003C99.685 13.2075 99.9902 14.1433 100.601 14.808C101.224 15.459 102.004 15.7845 102.94 15.7845Z" fill="black"/>
<path d="M112.741 8.29745V14.5028C112.741 14.9232 112.835 15.2284 113.025 15.4183C113.229 15.5946 113.568 15.6828 114.043 15.6828H115.467V17.6156H113.636C112.591 17.6156 111.791 17.3715 111.235 16.8832C110.679 16.3949 110.401 15.6014 110.401 14.5028V8.29745H109.078V6.40533H110.401V3.61802H112.741V6.40533H115.467V8.29745H112.741Z" fill="black"/>
</svg>
