<svg width="128" height="35" viewBox="0 0 128 35" fill="none" xmlns="http://www.w3.org/2000/svg">
<path d="M48.1006 6.53957H52.6356L47.6941 27.8068H39.7188L34.7773 6.53957H39.3123L43.0028 24.0538H44.4102L48.1006 6.53957Z" fill="black"/>
<path d="M56.9591 21.7707C56.98 22.7298 57.2302 23.4283 57.7098 23.8661C58.2102 24.2831 58.9191 24.4916 59.8365 24.4916C61.7755 24.4916 63.5061 24.4291 65.0282 24.304L65.9039 24.2101L65.9664 27.3064C63.5687 27.8902 61.4002 28.1821 59.4612 28.1821C57.1051 28.1821 55.3954 27.5566 54.332 26.3056C53.2687 25.0546 52.737 23.0217 52.737 20.2069C52.737 14.5982 55.0409 11.7938 59.6488 11.7938C64.1942 11.7938 66.4668 14.1499 66.4668 18.8621L66.1541 21.7707H56.9591ZM62.3385 18.5806C62.3385 17.3296 62.1404 16.4643 61.7443 15.9847C61.3481 15.4843 60.6496 15.2341 59.6488 15.2341C58.6689 15.2341 57.9704 15.4947 57.5534 16.016C57.1572 16.5164 56.9487 17.3713 56.9279 18.5806H62.3385Z" fill="black"/>
<path d="M68.8364 27.8068V12.1691H72.9961V13.8267C74.7475 12.7842 76.4155 12.1066 78.0001 11.7938V16.016C76.3113 16.3705 74.8622 16.7353 73.6529 17.1106L73.0273 17.3296V27.8068H68.8364Z" fill="black"/>
<path d="M88.5108 15.7345H84.664V22.146C84.664 22.7715 84.6744 23.2198 84.6952 23.4908C84.7369 23.741 84.8516 23.9599 85.0393 24.1476C85.2478 24.3352 85.5605 24.4291 85.9775 24.4291L88.3545 24.3665L88.5421 27.713C87.1451 28.0257 86.0818 28.1821 85.352 28.1821C83.4755 28.1821 82.1932 27.7651 81.5052 26.9311C80.8171 26.0762 80.4731 24.5125 80.4731 22.2398V15.7345H78.6278V12.1691H80.4731V7.82186H84.664V12.1691H88.5108V15.7345Z" fill="black"/>
<path d="M90.6143 27.8068V12.1691H94.8052V27.8068H90.6143ZM90.6143 10.1675V5.91406H94.8052V10.1675H90.6143Z" fill="black"/>
<path d="M112.22 29.7459C112.22 31.539 111.532 32.863 110.156 33.7178C108.779 34.5727 106.913 35.0001 104.557 35.0001C102.222 35.0001 100.419 34.6874 99.1467 34.0619C97.8956 33.4364 97.2701 32.3 97.2701 30.6529C97.2701 29.3393 98.0207 28.0987 99.522 26.9311C98.7505 26.4098 98.3648 25.6175 98.3648 24.5542C98.3648 24.1372 98.6775 23.4491 99.303 22.49L99.5845 22.0521C98.1667 21.0305 97.4578 19.5293 97.4578 17.5485C97.4578 15.5469 98.052 14.0978 99.2405 13.2012C100.45 12.3047 102.045 11.8564 104.026 11.8564C104.922 11.8564 105.808 11.9606 106.684 12.1691L107.184 12.263L112.22 12.1066V15.453L109.874 15.2654C110.333 15.9743 110.562 16.6832 110.562 17.3921C110.562 19.4771 110.03 20.9158 108.967 21.7081C107.904 22.5004 106.236 22.8966 103.963 22.8966C103.484 22.8966 103.056 22.8549 102.681 22.7715C102.472 23.3136 102.368 23.7619 102.368 24.1163C102.368 24.4499 102.545 24.6793 102.9 24.8044C103.254 24.9295 104.088 25.0025 105.402 25.0233C108.029 25.0442 109.822 25.3986 110.781 26.0867C111.74 26.7539 112.22 27.9736 112.22 29.7459ZM101.398 30.215C101.398 31.1116 102.493 31.5598 104.682 31.5598C106.893 31.5598 107.998 31.0386 107.998 29.9961C107.998 29.4331 107.81 29.0682 107.435 28.9014C107.059 28.7555 106.267 28.6721 105.058 28.6512L102.243 28.4323C101.68 28.9953 101.398 29.5895 101.398 30.215ZM101.649 17.4234C101.649 18.9455 102.441 19.7065 104.026 19.7065C105.631 19.7065 106.434 18.9455 106.434 17.4234C106.434 15.8805 105.631 15.109 104.026 15.109C102.441 15.109 101.649 15.8805 101.649 17.4234Z" fill="black"/>
<path d="M114.978 13.9518C116.083 12.5132 117.928 11.7938 120.513 11.7938C123.099 11.7938 124.944 12.5132 126.049 13.9518C127.154 15.3696 127.707 17.3713 127.707 19.9567C127.707 25.4403 125.309 28.1821 120.513 28.1821C115.718 28.1821 113.32 25.4403 113.32 19.9567C113.32 17.3713 113.873 15.3696 114.978 13.9518ZM118.199 23.4908C118.637 24.2414 119.408 24.6167 120.513 24.6167C121.618 24.6167 122.379 24.2414 122.796 23.4908C123.234 22.7402 123.453 21.5622 123.453 19.9567C123.453 18.3512 123.234 17.1836 122.796 16.4539C122.379 15.7241 121.618 15.3592 120.513 15.3592C119.408 15.3592 118.637 15.7241 118.199 16.4539C117.782 17.1836 117.573 18.3512 117.573 19.9567C117.573 21.5622 117.782 22.7402 118.199 23.4908Z" fill="black"/>
<path fill-rule="evenodd" clip-rule="evenodd" d="M18.8812 5.34677C17.0083 4.57101 14.9821 4.23648 12.9593 4.36906C10.9365 4.50165 8.97125 5.09779 7.21568 6.11137L5.44438 7.13403L3.39906 3.59143L5.17036 2.56877C7.46932 1.24146 10.0428 0.460799 12.6917 0.287179C15.3407 0.113559 17.994 0.551632 20.4466 1.56751C22.8991 2.58338 25.0851 4.14983 26.8354 6.14568C28.5857 8.14152 29.8534 10.5133 30.5405 13.0774C31.2276 15.6416 31.3156 18.3294 30.7977 20.933C30.2798 23.5366 29.1699 25.9862 27.5539 28.0923C25.9378 30.1983 23.859 31.9044 21.4781 33.0785C19.0973 34.2526 16.0264 34.8633 13.8236 34.8633C11.6209 34.8633 10.3347 34.5329 8.64563 33.8333C7.00402 33.1533 5.51242 32.1567 4.25599 30.9002C2.99955 29.6438 2.0029 28.1522 1.32292 26.5106C0.642947 24.869 0.292969 23.1095 0.292969 21.3327C0.292969 19.5558 0.642948 17.7963 1.32292 16.1547C2.0029 14.5131 2.99956 13.0215 4.25599 11.7651C5.51242 10.5087 7.00402 9.51201 8.64563 8.83203C10.2872 8.15206 12.0467 7.80208 13.8236 7.80208C15.6004 7.80208 17.3599 8.15206 19.0015 8.83203C20.6431 9.51201 22.1347 10.5087 23.3911 11.7651C24.6476 13.0215 25.6442 14.5131 26.3242 16.1547C26.6167 16.8609 26.8481 17.5888 27.0169 18.3305C27.0995 16.9224 26.9563 15.5062 26.5892 14.1362C26.0646 12.1781 25.0965 10.3669 23.7599 8.84283C22.4233 7.31873 20.754 6.12253 18.8812 5.34677ZM5.65402 26.0625C5.88604 21.6648 9.52538 18.1703 13.9809 18.1703C18.2642 18.1703 21.7932 21.3998 22.2657 25.5567C22.3659 25.3565 22.459 25.1526 22.5449 24.9452C23.0193 23.7999 23.2635 22.5723 23.2635 21.3327C23.2635 20.093 23.0193 18.8655 22.5449 17.7202C22.0705 16.5749 21.3752 15.5342 20.4986 14.6576C19.622 13.781 18.5814 13.0857 17.4361 12.6113C16.2908 12.1369 15.0632 11.8927 13.8236 11.8927C12.5839 11.8927 11.3564 12.1369 10.211 12.6113C9.06574 13.0857 8.02509 13.781 7.14851 14.6576C6.27193 15.5342 5.57659 16.5748 5.10219 17.7202C4.62778 18.8655 4.38361 20.093 4.38361 21.3327C4.38361 22.5723 4.62778 23.7999 5.10218 24.9452C5.26166 25.3302 5.44611 25.7034 5.65402 26.0625ZM18.2289 26.509C18.2289 28.8551 16.327 30.7569 13.9809 30.7569C11.6348 30.7569 9.73291 28.8551 9.73291 26.509C9.73291 24.1629 11.6348 22.261 13.9809 22.261C16.327 22.261 18.2289 24.1629 18.2289 26.509Z" fill="#181F1A"/>
</svg>
